<?xml version="1.0" encoding="utf-8"?>
<!-- Generator: Adobe Illustrator 19.0.0, SVG Export Plug-In . SVG Version: 6.00 Build 0)  -->
<svg version="1.1" id="All_glyphs" xmlns="http://www.w3.org/2000/svg" xmlns:xlink="http://www.w3.org/1999/xlink" x="0px" y="0px"
	 viewBox="21 87 541.6 78" style="enable-background:new 21 87 541.6 78;" xml:space="preserve">
<style type="text/css">
	.st0{fill:#33CD99;}
	.st1{display:none;fill:#FFFFFF;}
	.st2{fill:#FFFFFF;}
</style>
<g>
	<g>
		<path class="st0" d="M35.2,120L54,101.2L39.8,87.1c0,0-5.4-1.1-12.6,6.1c-7.2,7.2-6.1,12.6-6.1,12.6L35.2,120z"/>
		<path class="st0" d="M60,144.8l13.7-13.7l5.1-5.1l0,0l0,0L99,105.8c0,0,1.1-5.4-6.1-12.6c-7.3-7.2-12.7-6.1-12.7-6.1l-25.3,25.2
			L26,141.2L21,165l23.8-5.1L60,144.8L60,144.8L60,144.8z M43.4,157.1l-8.1,1.7c-0.8-1.5-1.7-2.9-3.5-4.7c-1.7-1.7-3.2-2.7-4.7-3.5
			l1.8-8.1l2.3-2.3c0,0,4.4,0.1,9.4,5.1s5.1,9.4,5.1,9.4L43.4,157.1z"/>
		<path class="st0" d="M93.9,141.2l-9.5-9.5l-18.7,18.8l9.5,9.5l23.8,5L93.9,141.2z M88.2,154.2c-1.7,1.7-2.7,3.2-3.5,4.7l-8.1-1.8
			l-2.3-2.3c0,0,0.1-4.4,5.1-9.4s9.4-5.1,9.4-5.1l2.3,2.3l1.7,8.1C91.4,151.5,89.9,152.4,88.2,154.2z"/>
	</g>
	<g>
		<path class="st1" d="M145.9,98.4c0-0.8,0.7-1.5,1.5-1.5h2l33.6,35.7h0.1V99.3c0-0.8,0.6-1.5,1.5-1.5h7.4c0.8,0,1.5,0.7,1.5,1.5
			v54.2c0,0.8-0.7,1.5-1.5,1.5h-1.9l-33.7-37h-0.1v34.7c0,0.8-0.6,1.5-1.5,1.5h-7.3c-0.8,0-1.5-0.7-1.5-1.5V98.4H145.9z"/>
		<path class="st1" d="M233.2,97c16.1,0,29,13,29,29.1s-12.9,28.9-29,28.9s-28.9-12.8-28.9-28.9C204.2,110,217,97,233.2,97z
			 M233.2,144.5c10.2,0,18.5-8.3,18.5-18.5s-8.4-18.6-18.5-18.6c-10.2,0-18.5,8.5-18.5,18.6S223,144.5,233.2,144.5z"/>
		<path class="st1" d="M279.8,107.5h-12.3c-0.9,0-1.5-0.7-1.5-1.5v-6.6c0-0.8,0.6-1.5,1.5-1.5h35.2c0.9,0,1.5,0.7,1.5,1.5v6.6
			c0,0.8-0.6,1.5-1.5,1.5h-12.3v45.2c0,0.8-0.7,1.5-1.5,1.5h-7.5c-0.8,0-1.5-0.7-1.5-1.5v-45.2H279.8z"/>
		<path class="st1" d="M312.6,99.3c0-0.8,0.6-1.5,1.5-1.5h32.8c0.9,0,1.5,0.7,1.5,1.5v6.6c0,0.8-0.6,1.5-1.5,1.5H323v13.2h20
			c0.8,0,1.5,0.7,1.5,1.5v6.7c0,0.9-0.7,1.5-1.5,1.5h-19.9v14.1H347c0.9,0,1.5,0.7,1.5,1.5v6.6c0,0.8-0.6,1.5-1.5,1.5h-32.8
			c-0.9,0-1.5-0.7-1.5-1.5V99.3H312.6z"/>
		<path class="st2" d="M198.5,98.4c0-0.8,0.7-1.5,1.5-1.5h2l33.5,35.6h0.1V99.3c0-0.8,0.6-1.5,1.5-1.5h7.4c0.8,0,1.5,0.7,1.5,1.5
			v54.2c0,0.8-0.7,1.5-1.5,1.5h-1.9l-33.7-37h-0.1v34.7c0,0.8-0.6,1.5-1.5,1.5H200c-0.8,0-1.5-0.7-1.5-1.5V98.4z"/>
		<path class="st2" d="M285.8,97c16.1,0,29,13,29,29.1s-12.9,28.9-29,28.9s-28.9-12.8-28.9-28.9C256.8,110,269.7,97,285.8,97z
			 M285.8,144.5c10.2,0,18.5-8.3,18.5-18.5s-8.4-18.6-18.5-18.6c-10.2,0-18.5,8.5-18.5,18.6S275.6,144.5,285.8,144.5z"/>
		<path class="st2" d="M332.4,107.4h-12.3c-0.9,0-1.5-0.7-1.5-1.5v-6.6c0-0.8,0.6-1.5,1.5-1.5h35.2c0.9,0,1.5,0.7,1.5,1.5v6.6
			c0,0.8-0.6,1.5-1.5,1.5H343v45.2c0,0.8-0.7,1.5-1.5,1.5H334c-0.8,0-1.5-0.7-1.5-1.5v-45.2H332.4z"/>
		<path class="st2" d="M365.2,99.4c0-0.8,0.6-1.5,1.5-1.5h32.8c0.9,0,1.5,0.7,1.5,1.5v6.6c0,0.8-0.6,1.5-1.5,1.5h-23.9v13.2h19.9
			c0.8,0,1.5,0.7,1.5,1.5v6.7c0,0.9-0.7,1.5-1.5,1.5h-19.9v14.1h23.9c0.9,0,1.5,0.7,1.5,1.5v6.6c0,0.8-0.6,1.5-1.5,1.5h-32.8
			c-0.9,0-1.5-0.7-1.5-1.5V99.4z"/>
	</g>
</g>
<g>
	<path class="st0" d="M154.4,134v21.3h-15.8V96.7h19.2c15.9,0,23.9,5.8,23.9,17.3c0,6.8-3.3,12-9.9,15.7l17.1,25.5h-17.9L158.4,134
		H154.4z M154.4,122.1h3c5.5,0,8.3-2.4,8.3-7.3c0-4-2.7-6-8.1-6h-3.1V122.1z"/>
</g>
</svg>
